<svg xmlns="http://www.w3.org/2000/svg" width="36" height="36" viewBox="0 0 36 36">
  <defs>
    <style>
      .cls-1, .cls-2 {
        fill: #0396ff;
      }

      .cls-1 {
        opacity: 0.2;
      }
    </style>
  </defs>
  <g id="Group_117" data-name="Group 117" transform="translate(-86 -93)">
    <path id="Union_3" data-name="Union 3" class="cls-1" d="M26.729,27.706C13.251,14.218,13.4,14.367,13.544,14.517s.291.3-13.254-13.251A.7.7,0,0,1,.7,0H27.3a.7.7,0,0,1,.7.7V27.3a.7.7,0,0,1-1.271.405Z" transform="translate(94 93)"/>
    <path id="Union_2" data-name="Union 2" class="cls-2" d="M26.729,27.706C13.251,14.218,13.4,14.367,13.544,14.517s.291.3-13.254-13.251A.7.7,0,0,1,.7,0H27.3a.7.7,0,0,1,.7.7V27.3a.7.7,0,0,1-1.271.405Z" transform="translate(86 101)"/>
  </g>
</svg>
