<svg xmlns="http://www.w3.org/2000/svg" width="1259.756" height="904.002" viewBox="0 0 1259.756 904.002">
  <defs>
    <style>
      .cls-1 {
        fill: #0396ff;
        opacity: 0.8;
      }

      .cls-2, .cls-3 {
        fill: #fff;
      }

      .cls-3 {
        opacity: 0.2;
      }
    </style>
  </defs>
  <g id="Group_114" data-name="Group 114" transform="translate(-258.999 -77.999)">
    <rect id="Overlay" class="cls-1" width="1203" height="890" rx="5" transform="translate(259 78)"/>
    <path id="Subtraction_2" data-name="Subtraction 2" class="cls-2" d="M5183-10443.389H3980v-904H5183v904Zm-858.12-829.722c-1.866,0-3.282.762-3.789,2.036-.493,1.241.014,2.738,1.357,4,0,0,127.124,116.706,278.024,255.244-137.236,145.9-301.663,320.085-303.159,321.67a3.13,3.13,0,0,0-.6.923l-178.436,195.261a3.817,3.817,0,0,0-1.1,2.071,3.963,3.963,0,0,0,.244,2.185,3.619,3.619,0,0,0,3.381,2.316l382.126-.743c1.436,0,3.359-1.557,4.9-3.967a3.135,3.135,0,0,0,1.059-.743c1.615-1.748,171.917-186.069,301.6-326.149,187.492,172.142,279.408,256.549,281,258.044a6.443,6.443,0,0,0,4.4,1.912,5.711,5.711,0,0,0,4.06-1.733,5.712,5.712,0,0,0,1.706-3.979c0-.562,0-9.458.008-24.2l0-7.98c.108-325.292.169-551.031.184-670.949-.058-3.021-2.193-4.753-5.858-4.753C5088.631-11272.643,4328.514-11273.11,4324.881-11273.11Z" transform="translate(-3721 11425.39)"/>
    <path id="Path_29" data-name="Path 29" class="cls-3" d="M327.648,1.3c1.42-1.42,3.084-1.826,4.494-.467C422.96,91.673,628,296.853,629.843,298.7a3.5,3.5,0,0,1-2.7,5.913C623.362,304.73,2.4,331.265,2.4,331.265c-2.423.071-3.16-1.957-1.529-3.588S327.648,1.3,327.648,1.3Z" transform="translate(1072.708 251.39) rotate(45)"/>
  </g>
</svg>
