<svg xmlns="http://www.w3.org/2000/svg" width="164" height="39" viewBox="0 0 164 39">
  <defs>
    <style>
      .cls-1, .cls-2 {
        fill: #313135;
      }

      .cls-1 {
        font-size: 20px;
        font-family: Rubik-Regular, Rubik;
      }

      .cls-2 {
        font-size: 12px;
        font-family: Karla-Regular, Karla;
        letter-spacing: 0.35em;
      }

      .cls-2, .cls-3 {
        opacity: 0.4;
      }

      .cls-4, .cls-5 {
        fill: #0396ff;
      }

      .cls-4 {
        opacity: 0.2;
      }
    </style>
  </defs>
  <g id="Group_124" data-name="Group 124" transform="translate(-124 -80)">
    <g id="Group_118" data-name="Group 118" transform="translate(53 -79)">
      <text id="Clarity-First" class="cls-1" transform="translate(117 178)"><tspan x="0" y="0">Clarity-First</tspan></text>
      <text id="CONSULTING" class="cls-2" transform="translate(118 184)"><tspan x="0" y="11">CONSULTING</tspan></text>
    </g>
    <g id="Group_125" data-name="Group 125" class="cls-3" transform="translate(38 -10)">
      <path id="Union_3" data-name="Union 3" class="cls-4" d="M26.729,27.706C13.251,14.218,13.4,14.367,13.544,14.517s.291.3-13.254-13.251A.7.7,0,0,1,.7,0H27.3a.7.7,0,0,1,.7.7V27.3a.7.7,0,0,1-1.271.405Z" transform="translate(94 93)"/>
      <path id="Union_2" data-name="Union 2" class="cls-5" d="M26.729,27.706C13.251,14.218,13.4,14.367,13.544,14.517s.291.3-13.254-13.251A.7.7,0,0,1,.7,0H27.3a.7.7,0,0,1,.7.7V27.3a.7.7,0,0,1-1.271.405Z" transform="translate(86 101)"/>
    </g>
  </g>
</svg>
