<svg xmlns="http://www.w3.org/2000/svg" width="165" height="39" viewBox="0 0 165 39">
  <defs>
    <style>
      .cls-1, .cls-2 {
        fill: #313135;
      }

      .cls-1 {
        font-size: 20px;
        font-family: Rubik-Regular, Rubik;
      }

      .cls-2 {
        font-size: 12px;
        font-family: Rubik-Italic, Rubik;
        font-style: italic;
        opacity: 0.4;
      }

      .cls-3 {
        fill: #0396ff;
      }

      .cls-4 {
        opacity: 0.6;
      }
    </style>
  </defs>
  <g id="Group_101" data-name="Group 101" transform="translate(-69 -158)">
    <g id="Group_100" data-name="Group 100" transform="translate(5)">
      <text id="Clarity-First" class="cls-1" transform="translate(117 177)"><tspan x="0" y="0">Clarity-First</tspan></text>
      <text id="Consulting" class="cls-2" transform="translate(118 193)"><tspan x="0" y="0">Consulting</tspan></text>
    </g>
    <g id="Group_102" data-name="Group 102" transform="translate(-130 -78)">
      <g id="Group_102-2" data-name="Group 102">
        <path id="Path_22" data-name="Path 22" class="cls-3" d="M3,0H25a3,3,0,0,1,3,3V25c0,1.657-2.4,2.324-4.06,2.324C-1.06,2.353,25.417,28.856.493,3.879.493,2.222,1.343,0,3,0Z" transform="translate(199 247)"/>
        <path id="Path_24" data-name="Path 24" class="cls-3" d="M2.5,0a2.5,2.5,0,0,1,0,5C1.119,5-.366,3.244-.366,1.864S1.119,0,2.5,0Z" transform="translate(222 270)"/>
        <path id="Path_23" data-name="Path 23" class="cls-3" d="M2.5,0A2.5,2.5,0,0,1,5,2.5c0,1.381-.286,3.146-1.667,3.146S0,3.881,0,2.5A2.5,2.5,0,0,1,2.5,0Z" transform="translate(199 247)"/>
      </g>
      <g id="Group_103" data-name="Group 103" class="cls-4" transform="translate(10 -10)">
        <path id="Path_22-2" data-name="Path 22" class="cls-3" d="M3,0H25a3,3,0,0,1,3,3V25c0,1.657-2.4,2.324-4.06,2.324C-1.06,2.353,25.417,28.856.493,3.879.493,2.222,1.343,0,3,0Z" transform="translate(199 247)"/>
        <path id="Path_24-2" data-name="Path 24" class="cls-3" d="M2.5,0a2.5,2.5,0,0,1,0,5C1.119,5-.366,3.244-.366,1.864S1.119,0,2.5,0Z" transform="translate(222 270)"/>
        <path id="Path_23-2" data-name="Path 23" class="cls-3" d="M2.5,0A2.5,2.5,0,0,1,5,2.5c0,1.381-.286,3.146-1.667,3.146S0,3.881,0,2.5A2.5,2.5,0,0,1,2.5,0Z" transform="translate(199 247)"/>
      </g>
    </g>
  </g>
</svg>
